<svg xmlns="http://www.w3.org/2000/svg" xmlns:xlink="http://www.w3.org/1999/xlink" width="422" zoomAndPan="magnify" viewBox="0 0 316.5 103.5" height="138" preserveAspectRatio="xMidYMid meet" version="1.0"><defs><g/><clipPath id="09e4b0c384"><path d="M 217 10 L 228 10 L 228 30 L 217 30 Z M 217 10 " clip-rule="nonzero"/></clipPath><clipPath id="c209b5764b"><path d="M 203.835938 16.332031 L 231.347656 9.425781 L 237.34375 33.316406 L 209.835938 40.222656 Z M 203.835938 16.332031 " clip-rule="nonzero"/></clipPath><clipPath id="d9db27e0e1"><path d="M 203.835938 16.332031 L 231.347656 9.425781 L 237.34375 33.316406 L 209.835938 40.222656 Z M 203.835938 16.332031 " clip-rule="nonzero"/></clipPath><clipPath id="4a8a1fb789"><path d="M 206 16 L 212 16 L 212 30 L 206 30 Z M 206 16 " clip-rule="nonzero"/></clipPath><clipPath id="af261dcff2"><path d="M 203.835938 16.332031 L 231.347656 9.425781 L 237.34375 33.316406 L 209.835938 40.222656 Z M 203.835938 16.332031 " clip-rule="nonzero"/></clipPath><clipPath id="8ba721f650"><path d="M 203.835938 16.332031 L 231.347656 9.425781 L 237.34375 33.316406 L 209.835938 40.222656 Z M 203.835938 16.332031 " clip-rule="nonzero"/></clipPath><clipPath id="cf481f0521"><path d="M 224 29 L 237 29 L 237 35 L 224 35 Z M 224 29 " clip-rule="nonzero"/></clipPath><clipPath id="9db3aa9b63"><path d="M 203.835938 16.332031 L 231.347656 9.425781 L 237.34375 33.316406 L 209.835938 40.222656 Z M 203.835938 16.332031 " clip-rule="nonzero"/></clipPath><clipPath id="7b97f63015"><path d="M 203.835938 16.332031 L 231.347656 9.425781 L 237.34375 33.316406 L 209.835938 40.222656 Z M 203.835938 16.332031 " clip-rule="nonzero"/></clipPath></defs><g clip-path="url(#09e4b0c384)"><g clip-path="url(#c209b5764b)"><g clip-path="url(#d9db27e0e1)"><path fill="#ffa500" d="M 218.179688 29.570312 C 218.296875 29.597656 218.414062 29.582031 218.519531 29.527344 C 218.628906 29.46875 218.703125 29.382812 218.746094 29.265625 L 220.746094 21.84375 L 225.113281 23.429688 L 225.402344 23.515625 C 225.601562 23.585938 225.808594 23.625 226.023438 23.628906 C 226.261719 23.628906 226.496094 23.582031 226.71875 23.492188 C 226.945312 23.402344 227.140625 23.269531 227.316406 23.101562 C 227.488281 22.933594 227.621094 22.738281 227.71875 22.515625 C 227.816406 22.296875 227.867188 22.0625 227.875 21.824219 L 227.953125 11.023438 C 227.972656 10.90625 227.949219 10.796875 227.882812 10.699219 C 227.816406 10.601562 227.726562 10.542969 227.613281 10.515625 C 227.496094 10.496094 227.390625 10.519531 227.289062 10.585938 C 227.191406 10.652344 227.132812 10.742188 227.109375 10.859375 L 224.539062 18.796875 L 220.058594 17.1875 L 219.769531 17.101562 C 219.535156 17.011719 219.296875 16.984375 219.050781 17.011719 C 218.804688 17.027344 218.570312 17.085938 218.351562 17.195312 C 218.128906 17.300781 217.933594 17.445312 217.769531 17.625 C 217.605469 17.808594 217.480469 18.011719 217.398438 18.242188 C 217.3125 18.472656 217.277344 18.710938 217.285156 18.957031 L 217.8125 29.179688 C 217.871094 29.367188 217.996094 29.496094 218.179688 29.570312 Z M 218.179688 29.570312 " fill-opacity="1" fill-rule="nonzero"/></g></g></g><g clip-path="url(#4a8a1fb789)"><g clip-path="url(#af261dcff2)"><g clip-path="url(#8ba721f650)"><path fill="#ffa500" d="M 210.015625 29.742188 C 210.082031 29.828125 210.171875 29.871094 210.28125 29.878906 C 210.390625 29.882812 210.484375 29.84375 210.558594 29.765625 C 210.699219 29.660156 210.734375 29.523438 210.671875 29.363281 L 209.605469 25.125 L 211.058594 24.0625 L 211.320312 23.835938 C 211.449219 23.730469 211.554688 23.605469 211.636719 23.460938 C 211.71875 23.316406 211.773438 23.160156 211.792969 22.996094 C 211.816406 22.828125 211.808594 22.667969 211.773438 22.503906 C 211.734375 22.34375 211.667969 22.191406 211.570312 22.054688 L 207.96875 17.113281 C 207.847656 16.945312 207.695312 16.914062 207.515625 17.011719 C 207.371094 17.09375 207.328125 17.210938 207.390625 17.367188 L 208.277344 21.96875 L 206.804688 23.144531 L 206.539062 23.371094 C 206.40625 23.480469 206.304688 23.613281 206.222656 23.761719 C 206.144531 23.914062 206.09375 24.074219 206.078125 24.242188 C 206.058594 24.414062 206.074219 24.578125 206.121094 24.742188 C 206.167969 24.90625 206.246094 25.054688 206.351562 25.191406 Z M 210.015625 29.742188 " fill-opacity="1" fill-rule="nonzero"/></g></g></g><g clip-path="url(#cf481f0521)"><g clip-path="url(#9db3aa9b63)"><g clip-path="url(#7b97f63015)"><path fill="#ffa500" d="M 230.304688 30.011719 L 230.078125 29.746094 C 229.957031 29.625 229.816406 29.535156 229.660156 29.472656 C 229.5 29.410156 229.335938 29.378906 229.164062 29.378906 C 228.992188 29.382812 228.832031 29.417969 228.675781 29.488281 C 228.515625 29.554688 228.378906 29.648438 228.261719 29.773438 L 224.203125 33.902344 C 224.105469 34.023438 224.070312 34.15625 224.089844 34.308594 C 224.125 34.40625 224.191406 34.484375 224.285156 34.53125 C 224.382812 34.578125 224.480469 34.589844 224.582031 34.558594 L 228.667969 33.101562 L 230.171875 34.605469 C 230.292969 34.71875 230.425781 34.804688 230.578125 34.867188 C 230.730469 34.929688 230.890625 34.964844 231.054688 34.96875 C 231.21875 34.96875 231.378906 34.945312 231.535156 34.886719 C 231.6875 34.832031 231.828125 34.75 231.953125 34.640625 L 236.503906 30.546875 C 236.601562 30.449219 236.644531 30.332031 236.628906 30.191406 C 236.578125 29.992188 236.402344 29.929688 236.199219 29.980469 L 231.722656 31.371094 Z M 230.304688 30.011719 " fill-opacity="1" fill-rule="nonzero"/></g></g></g><g fill="#697281" fill-opacity="1"><g transform="translate(25.484527, 61.686969)"><g><path d="M 8.875 0 L 3.5 0 L 3.5 -29.390625 L 23.640625 -29.390625 L 23.640625 -24.5625 L 8.875 -24.5625 L 8.875 -16.078125 L 21.625 -16.078125 L 21.625 -11.53125 L 8.875 -11.53125 Z M 8.875 0 "/></g></g></g><g fill="#697281" fill-opacity="1"><g transform="translate(47.623531, 61.686969)"><g><path d="M 8.296875 0 L 3.0625 0 L 3.0625 -30.4375 L 8.296875 -30.4375 Z M 8.296875 0 "/></g></g></g><g fill="#697281" fill-opacity="1"><g transform="translate(56.219734, 61.686969)"><g><path d="M 11.953125 0.671875 C 10.453125 0.671875 9.0625 0.367188 7.78125 -0.234375 C 6.507812 -0.835938 5.398438 -1.679688 4.453125 -2.765625 C 3.515625 -3.847656 2.785156 -5.101562 2.265625 -6.53125 C 1.742188 -7.957031 1.484375 -9.484375 1.484375 -11.109375 C 1.484375 -12.734375 1.742188 -14.253906 2.265625 -15.671875 C 2.796875 -17.085938 3.535156 -18.335938 4.484375 -19.421875 C 5.429688 -20.503906 6.535156 -21.347656 7.796875 -21.953125 C 9.066406 -22.566406 10.441406 -22.875 11.921875 -22.875 C 13.742188 -22.875 15.359375 -22.484375 16.765625 -21.703125 C 18.179688 -20.921875 19.238281 -19.835938 19.9375 -18.453125 L 19.9375 -22.21875 L 24.90625 -22.21875 L 24.90625 0 L 19.9375 0 L 19.9375 -3.734375 C 19.21875 -2.347656 18.15625 -1.265625 16.75 -0.484375 C 15.351562 0.285156 13.753906 0.671875 11.953125 0.671875 Z M 13.203125 -4.171875 C 14.109375 -4.171875 14.957031 -4.347656 15.75 -4.703125 C 16.539062 -5.054688 17.234375 -5.546875 17.828125 -6.171875 C 18.429688 -6.796875 18.898438 -7.53125 19.234375 -8.375 C 19.566406 -9.21875 19.734375 -10.128906 19.734375 -11.109375 C 19.734375 -12.066406 19.5625 -12.96875 19.21875 -13.8125 C 18.882812 -14.65625 18.421875 -15.394531 17.828125 -16.03125 C 17.234375 -16.664062 16.539062 -17.160156 15.75 -17.515625 C 14.957031 -17.867188 14.109375 -18.046875 13.203125 -18.046875 C 12.003906 -18.046875 10.910156 -17.753906 9.921875 -17.171875 C 8.941406 -16.597656 8.15625 -15.789062 7.5625 -14.75 C 6.96875 -13.71875 6.671875 -12.503906 6.671875 -11.109375 C 6.671875 -9.660156 6.96875 -8.414062 7.5625 -7.375 C 8.164062 -6.34375 8.960938 -5.550781 9.953125 -5 C 10.953125 -4.445312 12.035156 -4.171875 13.203125 -4.171875 Z M 13.203125 -4.171875 "/></g></g></g><g fill="#697281" fill-opacity="1"><g transform="translate(81.447453, 61.686969)"><g><path d="M 8.296875 0 L 3.0625 0 L 3.0625 -22.21875 L 8.078125 -22.21875 L 8.078125 -18.1875 C 8.597656 -19.414062 9.363281 -20.394531 10.375 -21.125 C 11.382812 -21.851562 12.609375 -22.21875 14.046875 -22.21875 L 16.421875 -22.21875 L 16.421875 -17.71875 L 14.328125 -17.71875 C 13.128906 -17.71875 12.078125 -17.425781 11.171875 -16.84375 C 10.265625 -16.269531 9.554688 -15.4375 9.046875 -14.34375 C 8.546875 -13.25 8.296875 -11.910156 8.296875 -10.328125 Z M 8.296875 0 "/></g></g></g><g fill="#697281" fill-opacity="1"><g transform="translate(95.78909, 61.686969)"><g><path d="M 24.203125 -11.5 C 24.203125 -11.21875 24.191406 -10.953125 24.171875 -10.703125 C 24.160156 -10.460938 24.132812 -10.132812 24.09375 -9.71875 L 6.734375 -9.71875 C 6.921875 -8.507812 7.304688 -7.476562 7.890625 -6.625 C 8.472656 -5.78125 9.195312 -5.128906 10.0625 -4.671875 C 10.925781 -4.222656 11.875 -4 12.90625 -4 C 14.226562 -4 15.296875 -4.257812 16.109375 -4.78125 C 16.929688 -5.3125 17.53125 -6.046875 17.90625 -6.984375 L 23.609375 -6.984375 C 23.335938 -5.984375 22.890625 -5.019531 22.265625 -4.09375 C 21.640625 -3.175781 20.875 -2.359375 19.96875 -1.640625 C 19.0625 -0.929688 18.019531 -0.367188 16.84375 0.046875 C 15.664062 0.460938 14.382812 0.671875 13 0.671875 C 11.332031 0.671875 9.796875 0.363281 8.390625 -0.25 C 6.984375 -0.863281 5.765625 -1.707031 4.734375 -2.78125 C 3.710938 -3.863281 2.914062 -5.117188 2.34375 -6.546875 C 1.769531 -7.972656 1.484375 -9.492188 1.484375 -11.109375 C 1.484375 -12.734375 1.769531 -14.253906 2.34375 -15.671875 C 2.914062 -17.085938 3.710938 -18.335938 4.734375 -19.421875 C 5.765625 -20.503906 6.984375 -21.347656 8.390625 -21.953125 C 9.796875 -22.566406 11.332031 -22.875 13 -22.875 C 14.675781 -22.875 16.203125 -22.570312 17.578125 -21.96875 C 18.953125 -21.363281 20.128906 -20.53125 21.109375 -19.46875 C 22.097656 -18.414062 22.859375 -17.203125 23.390625 -15.828125 C 23.929688 -14.460938 24.203125 -13.019531 24.203125 -11.5 Z M 6.953125 -13.765625 L 18.859375 -13.765625 C 18.785156 -14.597656 18.472656 -15.351562 17.921875 -16.03125 C 17.378906 -16.71875 16.675781 -17.269531 15.8125 -17.6875 C 14.945312 -18.113281 14.003906 -18.328125 12.984375 -18.328125 C 12.109375 -18.328125 11.265625 -18.160156 10.453125 -17.828125 C 9.648438 -17.503906 8.941406 -17.007812 8.328125 -16.34375 C 7.710938 -15.675781 7.253906 -14.816406 6.953125 -13.765625 Z M 6.953125 -13.765625 "/></g></g></g><g fill="#697281" fill-opacity="1"><g transform="translate(118.424887, 61.686969)"><g><path d="M 13.15625 0.671875 C 11.46875 0.671875 9.910156 0.367188 8.484375 -0.234375 C 7.066406 -0.835938 5.832031 -1.679688 4.78125 -2.765625 C 3.738281 -3.847656 2.925781 -5.101562 2.34375 -6.53125 C 1.769531 -7.957031 1.484375 -9.484375 1.484375 -11.109375 C 1.484375 -12.734375 1.769531 -14.253906 2.34375 -15.671875 C 2.925781 -17.085938 3.738281 -18.335938 4.78125 -19.421875 C 5.832031 -20.503906 7.066406 -21.347656 8.484375 -21.953125 C 9.910156 -22.566406 11.476562 -22.875 13.1875 -22.875 C 14.894531 -22.875 16.460938 -22.566406 17.890625 -21.953125 C 19.316406 -21.347656 20.554688 -20.503906 21.609375 -19.421875 C 22.660156 -18.335938 23.472656 -17.085938 24.046875 -15.671875 C 24.617188 -14.253906 24.90625 -12.734375 24.90625 -11.109375 C 24.90625 -9.460938 24.617188 -7.929688 24.046875 -6.515625 C 23.472656 -5.097656 22.660156 -3.847656 21.609375 -2.765625 C 20.554688 -1.679688 19.3125 -0.835938 17.875 -0.234375 C 16.445312 0.367188 14.875 0.671875 13.15625 0.671875 Z M 13.203125 -4.1875 C 14.453125 -4.1875 15.566406 -4.484375 16.546875 -5.078125 C 17.523438 -5.679688 18.300781 -6.5 18.875 -7.53125 C 19.445312 -8.570312 19.734375 -9.765625 19.734375 -11.109375 C 19.734375 -12.441406 19.445312 -13.628906 18.875 -14.671875 C 18.300781 -15.722656 17.523438 -16.546875 16.546875 -17.140625 C 15.566406 -17.742188 14.453125 -18.046875 13.203125 -18.046875 C 11.960938 -18.046875 10.847656 -17.742188 9.859375 -17.140625 C 8.878906 -16.546875 8.101562 -15.722656 7.53125 -14.671875 C 6.957031 -13.628906 6.671875 -12.441406 6.671875 -11.109375 C 6.671875 -9.765625 6.957031 -8.570312 7.53125 -7.53125 C 8.101562 -6.5 8.878906 -5.679688 9.859375 -5.078125 C 10.847656 -4.484375 11.960938 -4.1875 13.203125 -4.1875 Z M 13.203125 -4.1875 "/></g></g></g><g fill="#697281" fill-opacity="1"><g transform="translate(142.075843, 61.686969)"><g><path d="M 8.296875 0 L 3.0625 0 L 3.0625 -22.21875 L 8.03125 -22.21875 L 8.03125 -18.75 C 8.46875 -19.5625 9.0625 -20.273438 9.8125 -20.890625 C 10.5625 -21.515625 11.429688 -22 12.421875 -22.34375 C 13.421875 -22.695312 14.488281 -22.875 15.625 -22.875 C 18.601562 -22.875 20.832031 -21.925781 22.3125 -20.03125 C 23.800781 -18.144531 24.546875 -15.457031 24.546875 -11.96875 L 24.546875 0 L 19.3125 0 L 19.3125 -11.859375 C 19.3125 -14.066406 18.847656 -15.648438 17.921875 -16.609375 C 17.003906 -17.578125 15.753906 -18.0625 14.171875 -18.0625 C 13.148438 -18.0625 12.191406 -17.800781 11.296875 -17.28125 C 10.398438 -16.757812 9.675781 -16.003906 9.125 -15.015625 C 8.570312 -14.023438 8.296875 -12.800781 8.296875 -11.34375 Z M 8.296875 0 "/></g></g></g><g fill="#ffa500" fill-opacity="1"><g transform="translate(166.77462, 61.686969)"><g><path d="M 22.140625 0 L 3.5 0 L 3.5 -29.390625 L 8.875 -29.390625 L 8.875 -4.8125 L 22.140625 -4.8125 Z M 22.140625 0 "/></g></g></g><g fill="#ffa500" fill-opacity="1"><g transform="translate(187.034485, 61.686969)"><g><path d="M 11.953125 0.671875 C 10.453125 0.671875 9.0625 0.367188 7.78125 -0.234375 C 6.507812 -0.835938 5.398438 -1.679688 4.453125 -2.765625 C 3.515625 -3.847656 2.785156 -5.101562 2.265625 -6.53125 C 1.742188 -7.957031 1.484375 -9.484375 1.484375 -11.109375 C 1.484375 -12.734375 1.742188 -14.253906 2.265625 -15.671875 C 2.796875 -17.085938 3.535156 -18.335938 4.484375 -19.421875 C 5.429688 -20.503906 6.535156 -21.347656 7.796875 -21.953125 C 9.066406 -22.566406 10.441406 -22.875 11.921875 -22.875 C 13.742188 -22.875 15.359375 -22.484375 16.765625 -21.703125 C 18.179688 -20.921875 19.238281 -19.835938 19.9375 -18.453125 L 19.9375 -22.21875 L 24.90625 -22.21875 L 24.90625 0 L 19.9375 0 L 19.9375 -3.734375 C 19.21875 -2.347656 18.15625 -1.265625 16.75 -0.484375 C 15.351562 0.285156 13.753906 0.671875 11.953125 0.671875 Z M 13.203125 -4.171875 C 14.109375 -4.171875 14.957031 -4.347656 15.75 -4.703125 C 16.539062 -5.054688 17.234375 -5.546875 17.828125 -6.171875 C 18.429688 -6.796875 18.898438 -7.53125 19.234375 -8.375 C 19.566406 -9.21875 19.734375 -10.128906 19.734375 -11.109375 C 19.734375 -12.066406 19.5625 -12.96875 19.21875 -13.8125 C 18.882812 -14.65625 18.421875 -15.394531 17.828125 -16.03125 C 17.234375 -16.664062 16.539062 -17.160156 15.75 -17.515625 C 14.957031 -17.867188 14.109375 -18.046875 13.203125 -18.046875 C 12.003906 -18.046875 10.910156 -17.753906 9.921875 -17.171875 C 8.941406 -16.597656 8.15625 -15.789062 7.5625 -14.75 C 6.96875 -13.71875 6.671875 -12.503906 6.671875 -11.109375 C 6.671875 -9.660156 6.96875 -8.414062 7.5625 -7.375 C 8.164062 -6.34375 8.960938 -5.550781 9.953125 -5 C 10.953125 -4.445312 12.035156 -4.171875 13.203125 -4.171875 Z M 13.203125 -4.171875 "/></g></g></g><g fill="#ffa500" fill-opacity="1"><g transform="translate(212.262201, 61.686969)"><g><path d="M 15.734375 0.671875 C 14.648438 0.671875 13.617188 0.488281 12.640625 0.125 C 11.660156 -0.226562 10.773438 -0.734375 9.984375 -1.390625 C 9.191406 -2.046875 8.539062 -2.828125 8.03125 -3.734375 L 8.03125 0 L 3.0625 0 L 3.0625 -30.421875 L 8.296875 -30.421875 L 8.296875 -21.5 L 8.171875 -18.578125 C 8.660156 -19.441406 9.285156 -20.191406 10.046875 -20.828125 C 10.804688 -21.472656 11.664062 -21.972656 12.625 -22.328125 C 13.582031 -22.679688 14.597656 -22.859375 15.671875 -22.859375 C 17.253906 -22.859375 18.703125 -22.550781 20.015625 -21.9375 C 21.335938 -21.320312 22.476562 -20.476562 23.4375 -19.40625 C 24.40625 -18.332031 25.15625 -17.085938 25.6875 -15.671875 C 26.21875 -14.253906 26.484375 -12.734375 26.484375 -11.109375 C 26.484375 -9.484375 26.21875 -7.957031 25.6875 -6.53125 C 25.15625 -5.101562 24.398438 -3.847656 23.421875 -2.765625 C 22.453125 -1.679688 21.316406 -0.835938 20.015625 -0.234375 C 18.710938 0.367188 17.285156 0.671875 15.734375 0.671875 Z M 14.78125 -4.15625 C 15.957031 -4.15625 17.039062 -4.429688 18.03125 -4.984375 C 19.019531 -5.546875 19.8125 -6.347656 20.40625 -7.390625 C 21 -8.441406 21.296875 -9.679688 21.296875 -11.109375 C 21.296875 -12.503906 21 -13.71875 20.40625 -14.75 C 19.820312 -15.789062 19.035156 -16.597656 18.046875 -17.171875 C 17.066406 -17.753906 15.96875 -18.046875 14.75 -18.046875 C 13.84375 -18.046875 13 -17.867188 12.21875 -17.515625 C 11.4375 -17.160156 10.742188 -16.664062 10.140625 -16.03125 C 9.546875 -15.394531 9.078125 -14.660156 8.734375 -13.828125 C 8.398438 -12.992188 8.234375 -12.085938 8.234375 -11.109375 C 8.234375 -10.097656 8.40625 -9.164062 8.75 -8.3125 C 9.09375 -7.46875 9.566406 -6.726562 10.171875 -6.09375 C 10.773438 -5.46875 11.472656 -4.988281 12.265625 -4.65625 C 13.054688 -4.320312 13.894531 -4.15625 14.78125 -4.15625 Z M 14.78125 -4.15625 "/></g></g></g><g fill="#ffa500" fill-opacity="1"><g transform="translate(238.073101, 61.686969)"><g><path d="M 11.0625 0.671875 C 9.4375 0.671875 8.019531 0.453125 6.8125 0.015625 C 5.613281 -0.410156 4.617188 -0.988281 3.828125 -1.71875 C 3.046875 -2.457031 2.460938 -3.285156 2.078125 -4.203125 C 1.703125 -5.128906 1.515625 -6.082031 1.515625 -7.0625 L 6.53125 -7.046875 C 6.570312 -6.035156 6.972656 -5.1875 7.734375 -4.5 C 8.492188 -3.820312 9.617188 -3.484375 11.109375 -3.484375 C 12.460938 -3.484375 13.457031 -3.738281 14.09375 -4.25 C 14.738281 -4.769531 15.0625 -5.445312 15.0625 -6.28125 C 15.0625 -6.914062 14.878906 -7.410156 14.515625 -7.765625 C 14.160156 -8.128906 13.632812 -8.414062 12.9375 -8.625 C 12.238281 -8.832031 11.382812 -9.007812 10.375 -9.15625 C 9.300781 -9.300781 8.285156 -9.523438 7.328125 -9.828125 C 6.378906 -10.128906 5.535156 -10.546875 4.796875 -11.078125 C 4.054688 -11.617188 3.472656 -12.289062 3.046875 -13.09375 C 2.628906 -13.894531 2.421875 -14.875 2.421875 -16.03125 C 2.421875 -17.394531 2.738281 -18.585938 3.375 -19.609375 C 4.019531 -20.640625 4.960938 -21.441406 6.203125 -22.015625 C 7.453125 -22.585938 8.976562 -22.875 10.78125 -22.875 C 12.5625 -22.875 14.125 -22.578125 15.46875 -21.984375 C 16.820312 -21.390625 17.875 -20.554688 18.625 -19.484375 C 19.375 -18.410156 19.75 -17.164062 19.75 -15.75 L 14.625 -15.796875 C 14.570312 -16.617188 14.222656 -17.289062 13.578125 -17.8125 C 12.941406 -18.34375 12.015625 -18.609375 10.796875 -18.609375 C 9.679688 -18.609375 8.863281 -18.363281 8.34375 -17.875 C 7.820312 -17.394531 7.5625 -16.816406 7.5625 -16.140625 C 7.5625 -15.585938 7.679688 -15.140625 7.921875 -14.796875 C 8.171875 -14.460938 8.628906 -14.1875 9.296875 -13.96875 C 9.972656 -13.75 10.941406 -13.535156 12.203125 -13.328125 C 13.359375 -13.160156 14.429688 -12.929688 15.421875 -12.640625 C 16.421875 -12.347656 17.289062 -11.953125 18.03125 -11.453125 C 18.769531 -10.960938 19.347656 -10.320312 19.765625 -9.53125 C 20.179688 -8.75 20.390625 -7.769531 20.390625 -6.59375 C 20.390625 -4.96875 19.984375 -3.613281 19.171875 -2.53125 C 18.359375 -1.457031 17.25 -0.65625 15.84375 -0.125 C 14.4375 0.40625 12.84375 0.671875 11.0625 0.671875 Z M 11.0625 0.671875 "/></g></g></g></svg>