<svg width="394" height="400" viewBox="0 0 394 400" fill="none" xmlns="http://www.w3.org/2000/svg">
<g opacity="0.3">
<path d="M394 399.5C394 620.138 217.6 799 0 799C-217.6 799 -394 620.138 -394 399.5C-394 178.862 -217.6 0 0 0C217.6 0 394 178.862 394 399.5ZM-262.638 399.5C-262.638 546.576 -145.051 665.804 0 665.804C145.051 665.804 262.638 546.576 262.638 399.5C262.638 252.424 145.051 133.196 0 133.196C-145.051 133.196 -262.638 252.424 -262.638 399.5Z" fill="#FFBE46" fill-opacity="0.8"/>
<path d="M218 399.5C218 522.659 120.398 622.5 0 622.5C-120.398 622.5 -218 522.659 -218 399.5C-218 276.34 -120.398 176.5 0 176.5C120.398 176.5 218 276.34 218 399.5ZM-145.317 399.5C-145.317 481.597 -80.2566 548.15 0 548.15C80.2566 548.15 145.317 481.597 145.317 399.5C145.317 317.403 80.2566 250.85 0 250.85C-80.2566 250.85 -145.317 317.403 -145.317 399.5Z" fill="#FFBE46" fill-opacity="0.8"/>
</g>
</svg>
